<svg width="215" height="42" viewBox="0 0 215 42" fill="none" xmlns="http://www.w3.org/2000/svg">
<g clip-path="url(#clip0_179457_51862)">
<path d="M205.906 30.111C205.487 30.111 205.123 29.9561 204.813 29.6463C204.504 29.3366 204.349 28.9721 204.349 28.553V17.4557C204.349 17.0366 204.504 16.6721 204.813 16.3624C205.123 16.0526 205.487 15.8977 205.906 15.8977H206.452C206.871 15.8977 207.236 16.0526 207.545 16.3624C207.855 16.6721 208.01 17.0366 208.01 17.4557V18.6037C208.01 18.6219 208.019 18.631 208.037 18.631C208.073 18.631 208.092 18.6219 208.092 18.6037C208.62 17.8748 209.312 17.2826 210.168 16.827C211.024 16.3533 211.962 16.0617 212.982 15.9524C213.364 15.9159 213.692 16.0435 213.965 16.335C214.238 16.6084 214.375 16.9364 214.375 17.319C214.375 17.7017 214.238 18.0297 213.965 18.303C213.692 18.5764 213.364 18.7313 212.982 18.7677C209.758 19.0228 208.146 20.6628 208.146 23.6877V28.553C208.146 28.9721 207.991 29.3366 207.682 29.6463C207.372 29.9561 207.008 30.111 206.589 30.111H205.906Z" fill="#6D73FF"/>
<path d="M195.728 23.2776C193.124 23.2776 191.822 24.0794 191.822 25.683C191.822 26.2661 191.985 26.7398 192.313 27.1043C192.659 27.4687 193.096 27.651 193.625 27.651C194.663 27.651 195.501 27.3321 196.138 26.6943C196.775 26.0383 197.094 25.1454 197.094 24.0156V23.5236C197.094 23.3596 197.012 23.2776 196.848 23.2776H195.728ZM192.641 30.3843C191.403 30.3843 190.374 29.9834 189.554 29.1816C188.753 28.3616 188.352 27.3047 188.352 26.011C188.352 24.4256 188.953 23.1956 190.155 22.3209C191.375 21.4463 193.233 21.0089 195.728 21.0089H196.848C197.012 21.0089 197.094 20.9269 197.094 20.7629V20.5443C197.094 19.706 196.894 19.1229 196.493 18.7949C196.092 18.4487 195.382 18.2756 194.362 18.2756C193.306 18.2756 192.013 18.4669 190.483 18.8496C190.155 18.9407 189.855 18.886 189.581 18.6856C189.308 18.4669 189.172 18.1845 189.172 17.8383C189.172 17.4192 189.299 17.0456 189.554 16.7176C189.809 16.3714 190.137 16.1618 190.538 16.0889C191.922 15.7792 193.224 15.6243 194.444 15.6243C196.775 15.6243 198.405 16.0434 199.334 16.8816C200.263 17.7198 200.728 19.1867 200.728 21.2823V28.553C200.728 28.9721 200.573 29.3365 200.263 29.6463C199.972 29.9561 199.617 30.111 199.198 30.111H198.897C198.46 30.111 198.087 29.9652 197.777 29.6736C197.468 29.3638 197.304 28.9903 197.285 28.553V28.1703C197.285 28.1521 197.276 28.143 197.258 28.143C197.222 28.143 197.203 28.1521 197.203 28.1703C196.092 29.6463 194.572 30.3843 192.641 30.3843Z" fill="#6D73FF"/>
<path d="M182.181 30.1111C181.762 30.1111 181.398 29.9562 181.088 29.6464C180.779 29.3366 180.624 28.9722 180.624 28.5531V11.1691C180.624 10.75 180.779 10.3855 181.088 10.0758C181.398 9.76597 181.762 9.61108 182.181 9.61108H182.891C183.31 9.61108 183.674 9.76597 183.984 10.0758C184.294 10.3855 184.448 10.75 184.448 11.1691V28.5531C184.448 28.9722 184.294 29.3366 183.984 29.6464C183.674 29.9562 183.31 30.1111 182.891 30.1111H182.181Z" fill="#6D73FF"/>
<path d="M163.42 23.2776C160.816 23.2776 159.513 24.0794 159.513 25.683C159.513 26.2661 159.677 26.7398 160.005 27.1043C160.351 27.4687 160.788 27.651 161.317 27.651C162.355 27.651 163.192 27.3321 163.83 26.6943C164.467 26.0383 164.786 25.1454 164.786 24.0156V23.5236C164.786 23.3596 164.704 23.2776 164.54 23.2776H163.42ZM160.333 30.3843C159.095 30.3843 158.066 29.9834 157.246 29.1816C156.445 28.3616 156.044 27.3047 156.044 26.011C156.044 24.4256 156.645 23.1956 157.847 22.3209C159.067 21.4463 160.925 21.0089 163.42 21.0089H164.54C164.704 21.0089 164.786 20.9269 164.786 20.7629V20.5443C164.786 19.706 164.586 19.1229 164.185 18.7949C163.784 18.4487 163.074 18.2756 162.054 18.2756C160.998 18.2756 159.705 18.4669 158.175 18.8496C157.847 18.9407 157.547 18.886 157.273 18.6856C157 18.4669 156.864 18.1845 156.864 17.8383C156.864 17.4192 156.991 17.0456 157.246 16.7176C157.501 16.3714 157.829 16.1618 158.229 16.0889C159.614 15.7792 160.916 15.6243 162.136 15.6243C164.467 15.6243 166.097 16.0434 167.026 16.8816C167.955 17.7198 168.42 19.1867 168.42 21.2823V28.553C168.42 28.9721 168.265 29.3365 167.955 29.6463C167.664 29.9561 167.309 30.111 166.89 30.111H166.589C166.152 30.111 165.779 29.9652 165.469 29.6736C165.159 29.3638 164.996 28.9903 164.977 28.553V28.1703C164.977 28.1521 164.968 28.143 164.95 28.143C164.914 28.143 164.895 28.1521 164.895 28.1703C163.784 29.6463 162.264 30.3843 160.333 30.3843Z" fill="#6D73FF"/>
<path d="M142.313 26.421L148.487 18.6037C148.487 18.5855 148.496 18.5764 148.514 18.5764C148.514 18.5582 148.505 18.549 148.487 18.549H142.805C142.44 18.549 142.131 18.4215 141.876 18.1664C141.621 17.893 141.493 17.5742 141.493 17.2097C141.493 16.8453 141.621 16.5355 141.876 16.2804C142.131 16.0253 142.44 15.8977 142.805 15.8977H151.656C152.02 15.8977 152.33 16.0253 152.585 16.2804C152.84 16.5355 152.967 16.8453 152.967 17.2097C152.967 18.0844 152.694 18.877 152.148 19.5877L145.974 27.405C145.974 27.4232 145.965 27.4324 145.946 27.4324C145.946 27.4506 145.956 27.4597 145.974 27.4597H151.656C152.02 27.4597 152.33 27.5963 152.585 27.8697C152.84 28.1248 152.967 28.4346 152.967 28.799C152.967 29.1635 152.84 29.4732 152.585 29.7283C152.33 29.9835 152.02 30.111 151.656 30.111H142.805C142.44 30.111 142.131 29.9835 141.876 29.7283C141.621 29.4732 141.493 29.1635 141.493 28.799C141.493 27.9243 141.767 27.1317 142.313 26.421Z" fill="#6D73FF"/>
<path d="M134.639 30.1111C134.22 30.1111 133.856 29.9562 133.546 29.6464C133.237 29.3366 133.082 28.9722 133.082 28.5531V17.4557C133.082 17.0366 133.237 16.6722 133.546 16.3624C133.856 16.0526 134.22 15.8978 134.639 15.8978H135.35C135.768 15.8978 136.133 16.0526 136.442 16.3624C136.752 16.6722 136.907 17.0366 136.907 17.4557V28.5531C136.907 28.9722 136.752 29.3366 136.442 29.6464C136.133 29.9562 135.768 30.1111 135.35 30.1111H134.639ZM134.639 12.8911C134.22 12.8911 133.856 12.7362 133.546 12.4264C133.237 12.1166 133.082 11.7522 133.082 11.3331V11.1691C133.082 10.75 133.237 10.3855 133.546 10.0758C133.856 9.76597 134.22 9.61108 134.639 9.61108H135.35C135.768 9.61108 136.133 9.76597 136.442 10.0758C136.752 10.3855 136.907 10.75 136.907 11.1691V11.3331C136.907 11.7522 136.752 12.1166 136.442 12.4264C136.133 12.7362 135.768 12.8911 135.35 12.8911H134.639Z" fill="#6D73FF"/>
<path d="M117.519 30.111C117.1 30.111 116.736 29.9561 116.426 29.6463C116.117 29.3365 115.962 28.9721 115.962 28.553V17.4556C115.962 17.0365 116.117 16.672 116.426 16.3623C116.736 16.0525 117.1 15.8976 117.519 15.8976H117.874C118.311 15.8976 118.676 16.0525 118.967 16.3623C119.277 16.6538 119.441 17.0183 119.459 17.4556V17.6469C119.459 17.6652 119.468 17.6743 119.486 17.6743C119.504 17.6743 119.523 17.6652 119.541 17.6469C120.779 16.2985 122.227 15.6243 123.884 15.6243C125.542 15.6243 126.744 16.098 127.491 17.0456C128.256 17.9749 128.638 19.5329 128.638 21.7196V28.553C128.638 28.9721 128.483 29.3365 128.174 29.6463C127.864 29.9561 127.5 30.111 127.081 30.111H126.616C126.197 30.111 125.833 29.9561 125.524 29.6463C125.232 29.3365 125.087 28.9721 125.087 28.553V21.9929C125.087 20.6263 124.904 19.6969 124.54 19.2049C124.194 18.6947 123.566 18.4396 122.655 18.4396C121.908 18.4396 121.216 18.7585 120.579 19.3963C119.941 20.034 119.623 20.7174 119.623 21.4463V28.553C119.623 28.9721 119.468 29.3365 119.158 29.6463C118.849 29.9561 118.484 30.111 118.065 30.111H117.519Z" fill="#6D73FF"/>
<path d="M107.341 23.2776C104.737 23.2776 103.435 24.0794 103.435 25.683C103.435 26.2661 103.599 26.7398 103.926 27.1043C104.272 27.4687 104.71 27.651 105.238 27.651C106.276 27.651 107.114 27.3321 107.751 26.6943C108.388 26.0383 108.707 25.1454 108.707 24.0156V23.5236C108.707 23.3596 108.625 23.2776 108.461 23.2776H107.341ZM104.254 30.3843C103.016 30.3843 101.987 29.9834 101.167 29.1816C100.366 28.3616 99.9651 27.3047 99.9651 26.011C99.9651 24.4256 100.566 23.1956 101.768 22.3209C102.988 21.4463 104.846 21.0089 107.341 21.0089H108.461C108.625 21.0089 108.707 20.9269 108.707 20.7629V20.5443C108.707 19.706 108.507 19.1229 108.106 18.7949C107.706 18.4487 106.995 18.2756 105.975 18.2756C104.919 18.2756 103.626 18.4669 102.096 18.8496C101.768 18.9407 101.468 18.886 101.194 18.6856C100.921 18.4669 100.785 18.1845 100.785 17.8383C100.785 17.4192 100.912 17.0456 101.167 16.7176C101.422 16.3714 101.75 16.1618 102.151 16.0889C103.535 15.7792 104.837 15.6243 106.057 15.6243C108.388 15.6243 110.019 16.0434 110.947 16.8816C111.876 17.7198 112.341 19.1867 112.341 21.2823V28.553C112.341 28.9721 112.186 29.3365 111.876 29.6463C111.585 29.9561 111.23 30.111 110.811 30.111H110.51C110.073 30.111 109.7 29.9652 109.39 29.6736C109.081 29.3638 108.917 28.9903 108.898 28.553V28.1703C108.898 28.1521 108.889 28.143 108.871 28.143C108.835 28.143 108.816 28.1521 108.816 28.1703C107.706 29.6463 106.185 30.3843 104.254 30.3843Z" fill="#6D73FF"/>
<path d="M90.2992 18.3576C88.2958 18.3576 87.2941 19.8154 87.2941 22.7309C87.2941 24.2434 87.5582 25.3732 88.0864 26.1203C88.6328 26.8674 89.3704 27.241 90.2992 27.241C91.1188 27.241 91.82 26.9494 92.4028 26.3663C93.0038 25.7832 93.3043 25.0998 93.3043 24.3163V21.3643C93.3043 20.526 93.0038 19.8154 92.4028 19.2323C91.82 18.6492 91.1188 18.3576 90.2992 18.3576ZM89.1518 29.9743C87.5491 29.9743 86.2378 29.3365 85.2179 28.061C84.1979 26.7672 83.688 24.9905 83.688 22.7309C83.688 20.4714 84.1706 18.722 85.1359 17.4829C86.1194 16.2438 87.458 15.6243 89.1518 15.6243C90.0078 15.6243 90.7636 15.7792 91.4193 16.0889C92.075 16.3987 92.7215 16.918 93.359 17.6469C93.3772 17.6652 93.3954 17.6743 93.4136 17.6743C93.4318 17.6743 93.4409 17.6652 93.4409 17.6469V17.4556C93.4591 17.0183 93.6231 16.6538 93.9327 16.3623C94.2423 16.0525 94.6156 15.8976 95.0528 15.8976H95.3533C95.7722 15.8976 96.1273 16.0525 96.4187 16.3623C96.7283 16.672 96.8831 17.0365 96.8831 17.4556V29.0176C96.8831 33.9376 94.4244 36.3976 89.507 36.3976C88.6328 36.3976 87.713 36.3247 86.7477 36.179C86.3106 36.1061 85.9464 35.8874 85.655 35.523C85.3818 35.1767 85.2452 34.7758 85.2452 34.3203C85.2452 33.9558 85.3909 33.6643 85.6823 33.4456C85.9919 33.2452 86.3288 33.1905 86.6931 33.2816C87.5673 33.5003 88.4779 33.6096 89.425 33.6096C90.7728 33.6096 91.7562 33.2543 92.3755 32.5436C92.9947 31.8512 93.3043 30.7032 93.3043 29.0996V28.2523C93.3043 28.2341 93.2952 28.225 93.277 28.225C93.2588 28.225 93.2406 28.2341 93.2224 28.2523C92.1296 29.4003 90.7727 29.9743 89.1518 29.9743Z" fill="#6D73FF"/>
<path d="M73.3387 30.111C72.9198 30.111 72.5555 29.9561 72.2459 29.6463C71.9363 29.3366 71.7815 28.9721 71.7815 28.553V17.4557C71.7815 17.0366 71.9363 16.6721 72.2459 16.3624C72.5555 16.0526 72.9198 15.8977 73.3387 15.8977H73.8851C74.304 15.8977 74.6682 16.0526 74.9778 16.3624C75.2874 16.6721 75.4423 17.0366 75.4423 17.4557V18.6037C75.4423 18.6219 75.4514 18.631 75.4696 18.631C75.506 18.631 75.5242 18.6219 75.5242 18.6037C76.0524 17.8748 76.7445 17.2826 77.6005 16.827C78.4565 16.3533 79.3944 16.0617 80.4143 15.9524C80.7968 15.9159 81.1246 16.0435 81.3978 16.335C81.671 16.6084 81.8076 16.9364 81.8076 17.319C81.8076 17.7017 81.671 18.0297 81.3978 18.303C81.1246 18.5764 80.7968 18.7313 80.4143 18.7677C77.1907 19.0228 75.5789 20.6628 75.5789 23.6877V28.553C75.5789 28.9721 75.424 29.3366 75.1144 29.6463C74.8048 29.9561 74.4406 30.111 74.0217 30.111H73.3387Z" fill="#6D73FF"/>
<path d="M64.454 19.4236C63.9258 18.6583 63.1245 18.2756 62.0499 18.2756C60.9754 18.2756 60.1649 18.6583 59.6185 19.4236C59.0904 20.1707 58.8263 21.3643 58.8263 23.0043C58.8263 24.6443 59.0904 25.847 59.6185 26.6123C60.1649 27.3594 60.9754 27.733 62.0499 27.733C63.1245 27.733 63.9258 27.3594 64.454 26.6123C65.0004 25.847 65.2736 24.6443 65.2736 23.0043C65.2736 21.3643 65.0004 20.1707 64.454 19.4236ZM67.1313 28.471C65.9292 29.7465 64.2355 30.3843 62.0499 30.3843C59.8644 30.3843 58.1615 29.7465 56.9412 28.471C55.7392 27.1772 55.1382 25.355 55.1382 23.0043C55.1382 20.6536 55.7392 18.8405 56.9412 17.5649C58.1615 16.2712 59.8644 15.6243 62.0499 15.6243C64.2355 15.6243 65.9292 16.2712 67.1313 17.5649C68.3515 18.8405 68.9617 20.6536 68.9617 23.0043C68.9617 25.355 68.3515 27.1772 67.1313 28.471Z" fill="#6D73FF"/>
<path fill-rule="evenodd" clip-rule="evenodd" d="M44.8937 5.05566C45.5222 5.05566 46.032 5.56557 46.032 6.19455V38.0834C46.032 38.7123 45.5222 39.2223 44.8937 39.2223C44.2651 39.2223 43.7554 38.7123 43.7554 38.0834V6.19455C43.7554 5.56557 44.2651 5.05566 44.8937 5.05566Z" fill="#6D73FF"/>
<path fill-rule="evenodd" clip-rule="evenodd" d="M24.4195 4.6H32.8782C35.1043 4.6 36.9255 6.445 36.9255 8.7V37.4C36.9255 39.655 35.1043 41.5 32.8782 41.5H4.54729C2.32128 41.5 0.5 39.655 0.5 37.4V8.7C0.5 6.445 2.32128 4.6 4.54729 4.6H13.0061C13.856 2.222 16.082 0.5 18.7128 0.5C21.3435 0.5 23.5694 2.222 24.4195 4.6ZM20.7364 6.65C20.7364 5.5225 19.8258 4.6 18.7128 4.6C17.5998 4.6 16.6891 5.5225 16.6891 6.65C16.6891 7.7775 17.5998 8.7 18.7128 8.7C19.8258 8.7 20.7364 7.7775 20.7364 6.65ZM17.2643 14.6596C18.1168 14.0023 19.3106 14.0023 20.1632 14.6596L31.8713 23.6862C32.4304 24.1174 32.5376 24.9134 32.1117 25.4749C31.6768 26.0482 30.8527 26.1583 30.2802 25.7191L29.0157 24.7492V30.8468V34.6043C29.0157 35.8967 27.9587 36.9444 26.6549 36.9444H10.7726C9.46867 36.9444 8.41167 35.8967 8.41167 34.6043V24.7492L7.15358 25.7214C6.57883 26.1655 5.74817 26.0548 5.31197 25.4763C4.88789 24.9137 4.99612 24.118 5.55539 23.6869L17.2643 14.6596Z" fill="#6D73FF"/>
</g>
<defs>
<clipPath id="clip0_179457_51862">
<rect width="214" height="41" fill="white" transform="translate(0.5 0.5)"/>
</clipPath>
</defs>
</svg>
